<svg xmlns="http://www.w3.org/2000/svg" fill="none" viewBox="0 0 120 47" height="47" width="120">
<g clip-path="url(#clip0_4706_245)">
<path fill="#023150" d="M91.325 37.0017C88.9724 35.2002 85.8811 35.438 83.8648 38.1577C81.7481 40.9789 82.353 44.0379 84.5709 45.7371C87.2255 47.7765 89.7463 46.519 90.9217 45.1592C91.1568 44.8875 91.0564 44.5474 90.8205 44.3434C90.6189 44.1733 90.3838 44.1395 90.1487 44.2757C89.4091 44.7174 87.9308 45.2277 86.5194 44.1395C85.3096 43.1875 85.4443 41.7946 85.9145 40.9104L86.6206 41.2505C90.1487 42.9497 91.796 42.9159 92.7029 41.6584C93.778 40.197 93.2066 38.4293 91.325 37.0017ZM90.8548 39.7891C90.2499 40.6387 89.1748 41.0805 86.9235 40.0946L86.4533 39.8907C87.7635 37.8513 89.6124 37.0017 90.654 37.8513C91.3258 38.3954 91.3258 39.1088 90.8556 39.7883L90.8548 39.7891Z"></path>
<path fill="#023150" d="M76.8076 35.9147C80.6385 36.5942 82.218 36.1525 82.7895 34.6911C83.4613 32.9919 82.4197 31.4619 80.2352 30.5785C77.5137 29.4911 74.5897 30.5108 73.3465 33.6714C72.0355 36.9682 73.4134 39.7556 76.0345 40.8091C79.1259 42.0327 81.1756 40.1635 81.9821 38.532C82.1503 38.1918 81.9821 37.8525 81.6801 37.7501C81.4115 37.6477 81.2099 37.6824 81.0083 37.9202C80.4703 38.5658 79.1267 39.4154 77.4802 38.7359C76.0688 38.158 75.8337 36.7643 76.0354 35.7793L76.8084 35.9155L76.8076 35.9147ZM79.832 31.5643C80.605 31.9045 80.8401 32.6178 80.5381 33.3997C80.1683 34.3517 79.2271 35.0651 76.8084 34.7249L76.3039 34.6572C77.0092 32.3462 78.5888 31.0202 79.832 31.5643Z"></path>
<path fill="#023150" d="M69.5824 36.1862L70.691 29.4901L73.3791 29.9319C73.7823 29.9996 74.0852 29.7956 74.1521 29.3201C74.219 28.8445 74.0852 28.572 73.6484 28.5043L70.7244 27.9941C70.0183 26.5665 69.9179 25.6831 70.0526 24.9012C70.2208 23.8477 70.9261 23.2697 71.6322 23.3721C72.2705 23.4745 72.4387 23.9162 72.3383 24.4595C72.2713 24.7996 72.1701 25.1728 72.1032 25.4791C71.935 26.261 72.473 26.8728 73.3129 27.0429C74.1864 27.213 74.8925 26.7028 75.0264 25.7169C75.2615 23.9492 73.7154 22.7603 71.6656 22.4201C69.851 22.1146 67.8013 22.4878 67.4315 24.7996C67.2968 25.6154 67.4315 26.5673 67.8013 27.5185L66.0878 27.213C65.6511 27.1453 65.4495 27.3831 65.3483 27.8248C65.247 28.3351 65.4495 28.6067 65.8862 28.6744L67.5327 28.946L66.4576 35.6421C66.2895 36.7294 65.1466 36.8657 65.0462 37.5113C65.0128 37.7491 65.1801 37.9613 65.4495 37.9869C67.0356 38.1413 68.5743 38.3948 70.1538 38.7003C70.5236 38.768 70.8257 38.6664 70.86 38.3601C70.9269 37.6467 69.4151 37.2727 69.5833 36.1845L69.5824 36.1862Z"></path>
<path fill="#023150" d="M61.1479 24.5618C61.2148 25.3436 61.8197 25.8869 62.6939 25.8192C63.6009 25.7515 64.1053 25.1397 64.0384 24.12C63.938 22.3523 62.1568 21.5713 60.0728 21.6728C58.2247 21.7752 56.3431 22.5901 56.4435 24.9358C56.477 25.7515 56.8468 26.6688 57.4182 27.4845L55.6705 27.5869C55.2337 27.6208 55.0321 27.8924 55.0656 28.3688C55.0991 28.8444 55.3676 29.0822 55.8052 29.0483L57.4851 28.9459L57.8884 35.7435C57.9553 36.8309 56.9137 37.2388 56.9137 37.8844C56.9137 38.1561 57.1153 38.2923 57.3839 38.2584C58.9634 38.0545 60.543 37.8844 62.1217 37.8844C62.525 37.8844 62.7935 37.6805 62.7601 37.4088C62.6597 36.6608 61.1136 36.6608 61.0466 35.5396L60.6769 28.7759L63.3649 28.6058C63.8017 28.5719 64.0368 28.3341 64.0033 27.8239C63.9698 27.3822 63.7682 27.1105 63.3315 27.1444L60.3405 27.3145C59.3659 26.0909 59.1308 25.2074 59.0638 24.4255C58.9626 23.4058 59.534 22.624 60.2401 22.5901C60.912 22.5562 61.0801 22.9641 61.1479 23.5082C61.1813 23.8484 61.1144 24.2216 61.1479 24.5618Z"></path>
<path fill="#023150" d="M47.807 29.4572C44.8161 30.443 43.203 33.2296 44.2447 36.4926C45.2863 39.7217 48.2772 40.9791 51.2681 39.9595C54.2591 38.9398 55.8721 36.1524 54.8305 32.9241C53.7889 29.695 50.8314 28.4714 47.807 29.4572ZM51.1677 38.8382C49.4878 39.3823 48.0429 36.8666 47.2699 34.5556C46.5646 32.4147 46.6985 30.9524 47.8748 30.5446C49.5547 29.9666 51.0339 32.5162 51.7726 34.7934C52.4779 36.969 52.344 38.4642 51.1677 38.8382Z"></path>
<path fill="#023150" d="M119.485 36.7901C118.275 34.9547 116.46 35.5327 116.259 35.0909C116.192 34.9547 116.259 34.7855 116.427 34.6492L117.133 34.1737C117.503 33.9359 117.469 33.6981 117.1 33.3918L114.848 31.3524C114.378 30.9107 114.21 30.9445 114.008 31.0808C113.47 31.4548 114.042 32.3721 113.135 33.0177L108.8 36.0429C107.893 36.6547 107.12 36.2807 106.582 36.6547C106.381 36.791 106.347 37.0626 106.515 37.2665C107.355 38.2862 108.162 39.3397 108.968 40.4618C109.103 40.6319 109.305 40.6657 109.506 40.5295C110.044 40.1555 109.741 39.3397 110.615 38.7279L114.144 36.2469C114.984 35.6689 116.362 35.4988 117.034 36.5185C117.403 37.0626 117.705 37.8783 115.522 39.7815L112.632 42.2964C112.027 42.8405 111.355 42.2287 110.884 42.5342C110.683 42.6704 110.683 42.9082 110.783 43.0783C111.556 44.268 112.228 45.3348 112.968 46.5922C113.102 46.7962 113.337 46.8639 113.539 46.7285C114.043 46.3883 113.942 45.5255 114.614 44.9137L117.773 42.0925C120.596 39.5775 120.193 37.8775 119.487 36.7901H119.485Z"></path>
<path fill="#023150" d="M114.949 25.2901C115.789 24.6444 115.822 23.3869 115.083 22.6051C114.277 21.7555 112.932 21.6531 112.059 22.2996C111.186 22.9452 111.118 24.1688 111.992 25.0523C112.732 25.8003 114.11 25.9357 114.95 25.2901H114.949Z"></path>
<path fill="#023150" d="M111.991 27.9416C112.293 27.6361 112.26 27.4322 111.856 27.1597L109.302 25.5283C108.731 25.1542 108.563 25.2566 108.395 25.4267C107.925 25.9023 108.63 26.6842 107.857 27.4661L104.06 31.1707C103.287 31.9526 102.38 31.2731 101.909 31.7487C101.741 31.9188 101.741 32.1566 101.942 32.3605C102.984 33.414 103.992 34.4676 105.067 35.6235C105.235 35.7935 105.504 35.8274 105.672 35.6573C106.142 35.1817 105.537 34.2636 106.31 33.5164L111.989 27.9425L111.991 27.9416Z"></path>
<path fill="#023150" d="M101.574 30.1495C101.103 29.8093 101.002 29.5716 101.405 28.9598L103.925 25.0173C105.437 22.6724 105.034 20.6331 102.614 18.7977C101.068 17.6079 98.2121 17.3363 97.4056 18.4913C97.1036 18.9331 97.2709 19.3748 97.5738 19.6473C97.7754 19.8173 98.0782 19.885 98.3468 19.7496C98.8847 19.478 100.027 19.0016 101.203 19.8859C102.446 20.8378 102.076 21.8228 101.505 22.741L101.102 23.3866C100.967 23.5906 100.9 23.5906 100.8 23.5229C100.598 23.3866 100.128 22.4693 99.4219 21.9252C97.8088 20.6339 95.5575 20.0898 94.1461 21.9591C92.8694 23.6583 93.3396 25.5275 95.1542 26.9551C96.6326 28.111 97.8088 27.907 98.5149 27.6346C98.2798 28.6543 98.6831 29.6062 99.9598 30.6259C100.733 31.2377 101.405 31.4755 101.774 30.9661C102.01 30.6606 101.841 30.3543 101.573 30.1503L101.574 30.1495ZM99.3557 26.0708C98.6162 27.0566 97.7762 27.0905 97.1378 26.6149C96.3648 26.037 95.995 25.0511 97.0709 23.6583C97.8439 22.6386 98.7843 22.8425 99.3557 23.2842C100.061 23.8283 100.33 24.7795 99.3557 26.0716V26.0708Z"></path>
<path fill="#023150" d="M93.8447 10.6065L88.8375 20.0891C88.3331 21.041 87.2914 20.7009 86.9559 21.2788C86.8213 21.5166 86.889 21.7205 87.1576 21.8568C88.4343 22.5024 89.7787 23.1819 91.1232 23.9977C91.3583 24.1339 91.5934 24.0992 91.7281 23.8615C92.0644 23.2835 91.1566 22.604 91.6611 21.6182L97.945 9.78992C98.1467 9.4159 98.0454 9.24582 97.5752 9.11041L94.6521 8.32852C94.0137 8.15844 93.879 8.26082 93.7451 8.49861C93.4088 9.07656 94.3835 9.61984 93.8456 10.6057L93.8447 10.6065Z"></path>
<path fill="#023150" d="M78.5211 17.982C78.4542 18.186 78.5881 18.4576 78.8232 18.5261C80.4027 19.0017 81.9145 19.5797 83.5275 20.2253C83.8973 20.3615 84.1993 20.3269 84.334 20.0552C84.6361 19.4096 83.0908 18.6615 83.4941 17.608L84.872 13.971L85.8801 14.345C88.0646 15.1608 89.8457 14.1411 90.3828 12.8836C90.7861 11.9663 90.5175 11.286 89.5763 10.912C88.8033 10.6065 88.2654 10.7758 87.8286 11.4561C87.3242 12.238 86.5177 13.5632 85.6107 13.2915L85.174 13.1553L86.3168 10.1301C86.485 9.72223 86.3503 9.586 85.8467 9.5183L82.8557 9.11043C82.2174 9.00887 82.0492 9.17813 81.9823 9.38207C81.7806 9.99387 82.7888 10.4356 82.3521 11.4891L80.2688 16.4513C79.8321 17.4709 78.7228 17.3694 78.5211 17.9804V17.982Z"></path>
<path fill="#023150" d="M73.2462 17.3703C76.5391 17.9821 78.0517 15.705 78.6566 14.0058C78.7913 13.6318 78.5562 13.3601 78.2199 13.2924C77.9513 13.2247 77.7497 13.2924 77.5816 13.5641C77.1448 14.2774 76.0355 15.3995 74.2551 15.0593C72.7768 14.7877 72.2723 13.4617 72.3058 12.442H73.0788C76.9767 12.442 78.4893 11.5924 78.7578 10.0625C79.0599 8.26092 77.7497 6.9696 75.4314 6.52788C72.5074 5.98378 69.8528 7.54756 69.2479 10.9121C68.6095 14.379 70.4911 16.8601 73.247 17.3703H73.2462ZM75.229 7.58141C76.0689 7.71764 76.4387 8.39715 76.2706 9.21289C76.0689 10.2326 75.2959 11.0822 72.8429 11.2522L72.3384 11.2861C72.607 8.87272 73.8502 7.34362 75.2281 7.58141H75.229Z"></path>
<path fill="#023150" d="M56.2057 3.34017L56.9616 15.7901C56.9795 16.2318 57.3567 16.4746 57.7485 16.4407C58.0187 16.4176 58.2065 16.3053 58.3493 16.0031C58.5738 15.5284 58.8611 14.7259 59.2766 14.1983C59.7917 15.265 61.0488 16.4028 62.7263 16.2979C64.874 16.1732 67.6633 14.4906 67.4266 10.3846C67.1931 6.34636 64.6536 5.12687 62.6725 5.21026C61.6317 5.25402 60.9476 5.79317 60.4954 6.25471C60.1403 6.60974 59.9509 6.92431 59.817 6.92926C59.7166 6.93339 59.6464 6.86817 59.6407 6.73276L59.2807 0.454526C59.2595 -0.0548989 58.8236 -0.0367346 58.5909 0.041702L55.702 0.945787C55.1706 1.10431 55.0106 1.31485 55.022 1.58649C55.049 2.23132 56.1232 2.18674 56.2041 3.33934L56.2057 3.34017ZM61.3753 7.17035C63.2863 7.02174 64.003 9.71335 64.1271 11.9187C64.252 14.1248 63.6112 14.9001 62.5043 14.981C60.7272 15.1238 59.9117 12.471 59.7933 10.4011C59.6676 8.16113 60.3697 7.24714 61.3753 7.17035Z"></path>
<path fill="#023150" d="M48.3783 17.915C48.6133 17.8465 48.748 17.6434 48.6803 17.4056C48.5121 16.7599 47.3701 16.8953 47.0673 15.8418L45.9587 12.1033C45.5555 10.7096 45.824 9.41825 46.9669 9.01038C47.6387 8.77259 48.6133 8.8403 49.6215 11.5253L50.9994 15.23C51.3014 16.0796 50.4957 16.5213 50.6296 16.9977C50.6966 17.2355 50.8312 17.3379 51.1676 17.2693C52.6124 16.9639 54.0132 16.7492 55.4352 16.556C55.6711 16.5238 55.805 16.2505 55.7381 16.0119C55.5699 15.4339 54.6295 15.3662 54.2597 14.5166L52.2769 9.72457C50.9659 6.56398 49.2525 6.32537 47.8746 6.73324C45.6232 7.41275 45.4885 9.3844 45.0183 9.58834C44.8502 9.65604 44.7498 9.58834 44.5816 9.41825C43.7082 8.53481 42.5988 8.36472 41.3556 8.73874C39.1377 9.41825 39.0373 11.3222 38.5663 11.4915C38.4659 11.5253 38.2977 11.4915 38.23 11.2198L37.9279 10.234C37.7932 9.82612 37.6259 9.72457 37.1884 9.99621L34.6007 11.56C34.0293 11.9002 34.0293 12.0702 34.0962 12.308C34.2643 12.9537 35.306 12.682 35.6423 13.7356L37.39 19.4458C37.7263 20.4993 37.1549 21.0434 37.323 21.6552C37.39 21.893 37.6251 21.9954 37.861 21.893C39.1712 21.315 40.4168 20.6859 41.7254 20.1599C41.9923 20.0526 42.1286 19.8883 42.0617 19.6497C41.8935 19.004 40.785 19.1403 40.4487 18.0859L39.1385 14.1434C38.6683 12.7159 39.5083 11.1183 40.4487 10.8466C41.4568 10.5411 42.2298 10.8805 42.7335 12.5458L44.0102 16.7946C44.3131 17.8481 43.3719 18.3584 43.54 19.004C43.607 19.2418 43.8437 19.3128 44.078 19.2418C45.6224 18.772 46.953 18.3303 48.3791 17.9167L48.3783 17.915Z"></path>
<path fill="#023150" d="M32.1805 23.6239C33.0539 24.168 34.0955 24.168 35.4734 23.2498C36.2799 22.7057 36.7167 22.1625 36.3812 21.6184C36.1795 21.312 35.8098 21.3467 35.5412 21.516C35.0367 21.8562 34.8359 21.8562 34.3984 21.312L31.5756 17.6074C29.8622 15.3641 27.8794 15.0586 25.3251 16.7239C23.6787 17.8113 22.5693 20.3948 23.3089 21.6184C23.5774 22.0601 24.1154 22.0601 24.4517 21.8223C24.6533 21.6861 24.8215 21.4144 24.788 21.1089C24.7211 20.531 24.6533 19.2397 25.8631 18.4578C27.1733 17.6082 27.9128 18.2877 28.6189 19.1373L29.0891 19.7152C29.2573 19.9192 29.2573 20.0207 29.1226 20.0893C28.9879 20.157 27.9128 20.3609 27.1733 20.8373C25.4598 21.9585 24.1823 23.8963 25.4255 25.868C26.5684 27.6695 28.5169 27.8735 30.3993 26.616C31.9788 25.5625 32.2139 24.3727 32.1805 23.6247V23.6239ZM28.0132 23.6577C27.3079 22.5703 27.8116 21.7207 28.4165 21.3467C29.1895 20.8712 30.1299 20.9389 31.0042 22.2987C31.676 23.3184 31.4409 24.1341 30.7691 24.5758C29.9626 25.1199 28.9879 25.1538 28.0132 23.6585V23.6577Z"></path>
<path fill="#023150" d="M24.553 28.2455L21.0249 25.4242C18.0675 23.0794 16.4544 23.7927 15.5475 24.7109C14.0015 26.2746 14.8422 27.8376 14.4725 28.2116C14.3712 28.3132 14.2039 28.2793 14.0692 28.1439L9.63341 23.725C9.33138 23.4187 9.09546 23.4534 8.86037 23.8613L7.31429 26.4786C6.97797 27.0565 7.04572 27.2266 7.21388 27.3959C7.68407 27.8714 8.45711 27.1242 9.26362 27.9061L16.7908 35.4517C17.5638 36.2336 17.194 37.2533 17.6642 37.7289C17.8324 37.8989 18.1009 37.8989 18.2691 37.695C19.1425 36.6076 20.0503 35.5194 21.0919 34.4659C21.2266 34.3297 21.2266 34.0919 21.0584 33.9218C20.5882 33.4462 19.8486 33.9218 19.0756 33.1399L16.0177 30.1147C15.3124 29.4014 14.8749 28.0754 15.7492 27.1919C16.2194 26.7164 16.9255 26.3085 19.1768 28.1092L22.1678 30.5226C22.8061 31.0328 22.3359 31.8139 22.7392 32.2218C22.9073 32.3919 23.109 32.3919 23.2428 32.2556C24.3179 31.1683 25.3938 30.2163 26.5358 29.299C26.704 29.1628 26.704 28.8911 26.5358 28.721C26.0991 28.2793 25.2926 28.8234 24.553 28.2455Z"></path>
<path fill="#023150" d="M13.4078 35.703C12.976 35.4256 12.6797 35.3942 12.4764 35.717C12.3091 35.9829 12.3572 36.2 12.5923 36.5377C13.4388 37.7481 13.6111 39.1922 12.8478 40.4067C11.2609 42.9307 8.32714 43.3634 4.61214 40.9731C1.62855 39.0543 1.08571 37.3188 2.07589 35.7435C2.87505 34.472 4.26848 34.1417 6.03251 35.2761C6.85861 35.807 7.82838 35.6048 8.31816 34.827C8.91488 33.8783 8.48632 32.5895 7.30432 31.8291C5.46518 30.6459 3.04566 31.7283 1.21958 34.6321C-1.04811 38.2386 -0.163238 42.6987 3.94604 45.3425C7.83002 47.8409 12.0838 47.1118 14.4225 43.3923C17.06 39.198 14.5139 36.4147 13.407 35.7022L13.4078 35.703Z"></path>
<path fill="#023150" d="M42.1236 37.3602C41.8762 37.5501 41.846 37.7714 41.9513 38.171C42.3309 39.6052 41.9987 41.0203 40.8665 41.8897C38.5139 43.6962 35.6143 43.0654 32.9475 39.5119C30.8055 36.6576 30.8904 34.8387 32.3589 33.7117C33.5442 32.8018 34.9638 32.9843 36.2298 34.6719C36.8225 35.462 37.802 35.6148 38.5269 35.0583C39.4118 34.3788 39.4502 33.0198 38.602 31.8886C37.2821 30.13 34.6413 30.2902 31.9353 32.3683C28.5745 34.9493 27.8774 39.445 30.8275 43.3759C33.616 47.0913 37.8551 47.9104 41.3219 45.2476C45.2312 42.2456 43.7962 38.7357 43.0019 37.6773C42.6925 37.2644 42.424 37.1307 42.1236 37.361V37.3602Z"></path>
</g>
<defs>
<clipPath id="clip0_4706_245">
<rect fill="white" height="46.8085" width="120"></rect>
</clipPath>
</defs>
</svg>
